<svg width="500" height="500" viewBox="0 0 100 100" version="1.1" id="logo-circle" xmlns="http://www.w3.org/2000/svg" xmlns:svg="http://www.w3.org/2000/svg"> <g id="logo"> <path id="c1" d="M 100,50 C 100,22.385818 77.614182,0 50,0 v 5 c 24.852764,0 45,20.147236 45,45 z" style="display:inline;fill:#3b9341;fill-opacity:1;stroke:none;stroke-width:0.352363" /> <path id="c2" d="M 5,50 C 5,25.147236 25.147236,5 50,5 V 0 C 22.385818,0 0,22.385818 0,50 Z" style="fill:#e95247;fill-opacity:1;stroke:none;stroke-width:0.352363" /> <path id="c3" d="m 0,50 c 0,27.614182 22.385818,50 50,50 V 95 C 25.147236,95 5,74.852764 5,50 Z" style="display:inline;fill:#387bb0;fill-opacity:1;stroke:none;stroke-width:0.352363" /> <path id="c4" d="M 95,50 C 95,74.852764 74.852764,95 50,95 v 5 c 27.614182,0 50,-22.385818 50,-50 z" style="display:inline;fill:#fbd108;fill-opacity:1;stroke:none;stroke-width:0.352363" /> <path id="sg" d="m 34.369438,71.297419 c -0.320003,-0.107863 -0.733369,-0.273125 -0.918592,-0.367251 -0.185221,-0.09412 -0.555136,-0.171124 -0.822036,-0.171124 -0.820171,0 -2.105236,-1.221583 -1.926907,-1.83171 0.206242,-0.705616 2.038401,-4.610666 3.035504,-6.469844 1.203986,-2.24492 1.89511,-4.170057 1.725169,-4.805485 -0.1167,-0.436367 -7.871349,-7.838682 -8.211778,-7.838682 -0.08046,0 -0.32439,-0.349099 -0.542063,-0.77577 -0.217672,-0.426671 -0.471323,-0.775769 -0.563668,-0.775769 -0.09235,0 -0.316501,-0.313147 -0.49812,-0.69588 -0.208285,-0.438927 -0.564994,-0.793977 -0.966034,-0.961544 -0.515826,-0.215526 -0.625412,-0.360448 -0.580679,-0.767943 0.03032,-0.276253 0.165676,-0.635477 0.300782,-0.798268 0.135103,-0.162791 0.625109,-1.088584 1.088898,-2.057319 0.868828,-1.814755 3.507191,-6.466065 4.155111,-7.325269 1.189994,-1.578052 1.762289,-2.582102 2.191985,-3.845692 0.55208,-1.62348 1.188172,-2.748331 1.554153,-2.748331 0.137893,0 0.632597,0.144545 1.099348,0.32121 0.527947,0.19983 1.49801,0.33108 2.567061,0.347329 2.041343,0.03102 2.257385,0.203198 2.257385,1.799033 0,1.170565 -0.345037,2.137563 -1.081676,3.031486 -0.477553,0.579518 -1.36377,2.009609 -2.301033,3.713186 -0.234746,0.426671 -1.040737,1.735777 -1.791094,2.909124 -1.536644,2.402882 -2.053328,3.345055 -1.965341,3.583792 0.09309,0.252593 4.68519,4.341659 6.799745,6.054883 1.040013,0.842622 1.890933,1.617976 1.890933,1.722995 0,0.105026 0.296171,0.365694 0.658159,0.579276 0.757855,0.447141 1.05259,1.044376 1.189708,2.41075 0.05352,0.533337 0.147752,1.284587 0.209402,1.66943 0.08102,0.50578 -0.0058,0.930859 -0.313315,1.533595 -0.233976,0.458637 -0.552268,1.26105 -0.707318,1.783162 -0.155051,0.522112 -0.403805,0.996064 -0.552792,1.053241 -0.148986,0.05716 -0.41843,0.510797 -0.598762,1.008064 -0.180335,0.497268 -0.577346,1.449815 -0.88225,2.11678 -0.304902,0.666959 -0.554366,1.271003 -0.554366,1.342326 0,0.07132 -0.113878,0.267443 -0.25306,0.435847 -0.265487,0.321216 -1.686359,3.559149 -1.686359,3.842925 0,0.169061 -2.03048,1.231126 -2.283113,1.194205 -0.07764,-0.01135 -0.402982,-0.108888 -0.722987,-0.216758 z M 59.67885,70.832512 c -0.160003,-0.04948 -0.552736,-0.452041 -0.87274,-0.894539 -0.319998,-0.442499 -1.019483,-1.289702 -1.554405,-1.882673 -0.534915,-0.592971 -1.186378,-1.383585 -1.447683,-1.75692 -0.74507,-1.064487 -3.293947,-4.279664 -4.098105,-5.169381 -0.400511,-0.443128 -1.225181,-1.577685 -1.832588,-2.521236 -1.227182,-1.90632 -2.553042,-3.636492 -4.158213,-5.426229 -2.111059,-2.353787 -2.133572,-2.385857 -2.12918,-3.032171 0.0051,-0.752185 0.589003,-2.099541 1.250601,-2.885816 0.264227,-0.314012 0.570609,-0.90589 0.680849,-1.315287 0.110239,-0.409397 0.336476,-0.857266 0.50275,-0.995261 0.166274,-0.137995 0.741643,-0.999081 1.278599,-1.913524 0.536955,-0.914444 1.704733,-2.636436 2.595051,-3.826662 0.890325,-1.190219 2.284519,-3.189412 3.0982,-4.442656 0.81368,-1.253251 1.991013,-2.950703 2.616317,-3.772128 1.900077,-2.496054 2.754007,-2.971837 3.823685,-2.130433 0.271215,0.213336 0.640681,0.387884 0.821037,0.387884 0.180355,0 0.5238,0.208497 0.763195,0.463329 0.239408,0.254829 0.698329,0.515939 1.019842,0.580241 0.3215,0.06429 0.842428,0.30053 1.15761,0.524963 l 0.57304,0.408041 -0.517323,0.902643 c -0.284537,0.496458 -0.806047,1.208102 -1.158924,1.581443 -0.352878,0.373342 -1.088806,1.366021 -1.635403,2.205958 -0.546596,0.839944 -1.410817,1.974508 -1.9205,2.52125 -0.509669,0.546742 -0.977212,1.124993 -1.038971,1.284996 -0.0618,0.160002 -0.729485,1.120017 -1.483829,2.133362 -0.754351,1.013344 -1.549775,2.218387 -1.767605,2.677882 -0.217837,0.459488 -0.920948,1.607014 -1.562467,2.55006 -1.771923,2.604753 -1.780927,2.536426 0.725056,5.505192 1.156295,1.369834 2.625992,3.169772 3.266009,3.999861 0.640003,0.830096 1.94911,2.400729 2.909124,3.490296 0.960015,1.089574 1.842195,2.159757 1.960397,2.378175 0.202349,0.373923 0.250025,0.346116 0.815369,-0.475599 0.330254,-0.480007 1.029262,-1.648288 1.55336,-2.596171 0.524098,-0.947897 1.486445,-2.683447 2.138558,-3.8568 0.652114,-1.173347 1.18732,-2.24245 1.189341,-2.375788 0.0048,-0.308662 -1.724138,-0.325306 -3.101709,-0.0299 -1.176004,0.252205 -2.084779,-0.02298 -2.224304,-0.673477 -0.04858,-0.226502 -0.215477,-0.979102 -0.370905,-1.672441 -0.439149,-1.95911 -0.522887,-3.476677 -0.223734,-4.055156 0.386338,-0.747112 1.318498,-0.960008 6.894037,-1.574523 4.144299,-0.456754 5.864145,-0.121607 6.055179,1.179991 0.04748,0.323361 0.01363,0.632875 -0.07532,0.68781 -0.400428,0.247478 -0.143268,1.355578 0.469634,2.023623 0.346164,0.377307 0.790344,0.932256 0.987074,1.23323 0.341618,0.522624 0.34278,0.587663 0.02581,1.447344 -0.346005,0.938561 -0.397072,1.025206 -2.490356,4.225761 -0.707942,1.082418 -1.287709,2.042433 -1.288366,2.133361 -0.0021,0.232654 -2.168975,3.848032 -3.005645,5.01387 -0.38276,0.533337 -1.12983,1.572855 -1.660178,2.310029 -1.733106,2.409047 -1.777549,2.505831 -1.444313,3.144796 0.728053,1.396007 0.187374,1.78737 -2.809994,2.03401 -1.013345,0.08339 -2.104268,0.192944 -2.424273,0.243478 -0.320005,0.05052 -0.712737,0.05135 -0.87274,0.0021 z" style="display:inline;fill:#f9af16;stroke-width:0.193941" /> </g> </svg>