<?xml version="1.0" encoding="UTF-8" standalone="no"?>
<svg width="546.1333" height="546.1333" viewBox="0 0 144.49777 144.49777" version="1.1" id="svg5" xml:space="preserve"
    xmlns="http://www.w3.org/2000/svg" xmlns:svg="http://www.w3.org/2000/svg"
    xmlns:rdf="http://www.w3.org/1999/02/22-rdf-syntax-ns#" xmlns:cc="http://creativecommons.org/ns#"
    xmlns:dc="http://purl.org/dc/elements/1.1/">
    <title id="title213">Logotipo de Marca - Sanders Gutiérrez</title>
    <defs id="defs2" />
    <g id="layer1" transform="translate(-30.789815,-56.306411)">
        <path style="display:inline;fill:#f9af16;stroke-width:0.280241"
            d="m 80.479433,159.31903 c -0.462398,-0.15586 -1.059703,-0.39466 -1.327345,-0.53067 -0.267641,-0.136 -0.80216,-0.24727 -1.187824,-0.24727 -1.18513,0 -3.04202,-1.76516 -2.784338,-2.64678 0.298015,-1.0196 2.945444,-6.66231 4.386236,-9.34878 1.739732,-3.24386 2.738391,-6.02564 2.49283,-6.94382 -0.168629,-0.63054 -11.373924,-11.32672 -11.865837,-11.32672 -0.116266,0 -0.468735,-0.50444 -0.783268,-1.12097 -0.314532,-0.61653 -0.681051,-1.12097 -0.814488,-1.12097 -0.13344,0 -0.457337,-0.45249 -0.719772,-1.00553 -0.300968,-0.63424 -0.816404,-1.14728 -1.395898,-1.38941 -0.745357,-0.31143 -0.903707,-0.52084 -0.839069,-1.10966 0.04382,-0.39918 0.239399,-0.91825 0.434624,-1.15348 0.195221,-0.23523 0.903269,-1.57298 1.573433,-2.97278 1.255438,-2.62228 5.067814,-9.34332 6.004043,-10.58485 1.719516,-2.28025 2.546469,-3.73108 3.16737,-5.55694 0.797744,-2.345892 1.716883,-3.971277 2.245717,-3.971277 0.199252,0 0.914089,0.208864 1.588533,0.464142 0.762872,0.288749 2.164592,0.478403 3.709346,0.501882 2.949695,0.04483 3.261871,0.293617 3.261871,2.599563 0,1.69144 -0.49857,3.08873 -1.562998,4.38043 -0.690053,0.83739 -1.970617,2.90384 -3.324941,5.36547 -0.339202,0.61653 -1.503842,2.50816 -2.588091,4.20362 -2.220416,3.47211 -2.967013,4.83353 -2.839874,5.1785 0.134517,0.36499 6.769995,6.2736 9.825481,8.74917 1.502795,1.21757 2.732355,2.33794 2.732355,2.48969 0,0.15176 0.427961,0.52842 0.951026,0.83704 1.095084,0.64611 1.520969,1.5091 1.719101,3.48348 0.07733,0.77066 0.213499,1.8562 0.302581,2.41229 0.117077,0.73084 -0.0084,1.34507 -0.452732,2.21601 -0.33809,0.66272 -0.798016,1.82219 -1.022059,2.57663 -0.224045,0.75444 -0.58349,1.43929 -0.798773,1.52191 -0.215281,0.0826 -0.604621,0.73809 -0.865198,1.45663 -0.26058,0.71854 -0.834251,2.09495 -1.274831,3.0587 -0.440576,0.96374 -0.801047,1.83657 -0.801047,1.93963 0,0.10305 -0.16455,0.38645 -0.365666,0.62979 -0.383623,0.46415 -2.436751,5.14289 -2.436751,5.55294 0,0.24429 -2.933998,1.77895 -3.299047,1.7256 -0.112187,-0.0164 -0.5823,-0.15734 -1.0447,-0.31321 z m 36.571537,-0.67178 c -0.2312,-0.0715 -0.79869,-0.65319 -1.26109,-1.29259 -0.46239,-0.6394 -1.47313,-1.86359 -2.24608,-2.72042 -0.77294,-0.85683 -1.71429,-1.99925 -2.09187,-2.53871 -1.07661,-1.53816 -4.75968,-6.18402 -5.92167,-7.46964 -0.57873,-0.64031 -1.77036,-2.27972 -2.64805,-3.64313 -1.77325,-2.75459 -3.689088,-5.25465 -6.008525,-7.84078 -3.050433,-3.40117 -3.082964,-3.44751 -3.076618,-4.38142 0.0073,-1.08689 0.851096,-3.03379 1.807091,-4.16994 0.381802,-0.45374 0.824517,-1.30899 0.983812,-1.90056 0.159293,-0.59157 0.4862,-1.23873 0.726462,-1.43813 0.240263,-0.1994 1.071658,-1.44365 1.847547,-2.765 0.775888,-1.32135 2.463301,-3.80959 3.749791,-5.52944 1.2865,-1.71984 3.30108,-4.60863 4.47683,-6.41954 1.17575,-1.81092 2.87697,-4.2637 3.78052,-5.45064 2.74557,-3.606743 3.97948,-4.294238 5.52514,-3.078429 0.3919,0.308266 0.92577,0.560484 1.18638,0.560484 0.26061,0 0.75688,0.301274 1.1028,0.6695 0.34594,0.368223 1.00907,0.745521 1.47365,0.838435 0.46456,0.0929 1.21729,0.43426 1.67272,0.75856 l 0.82803,0.58961 -0.74752,1.3043 c -0.41115,0.71737 -1.16472,1.74568 -1.67462,2.28515 -0.5099,0.53947 -1.5733,1.97387 -2.36312,3.18756 -0.78982,1.2137 -2.0386,2.85312 -2.77508,3.64315 -0.73646,0.79003 -1.41205,1.62559 -1.50129,1.85679 -0.0893,0.2312 -1.05409,1.6184 -2.1441,3.08266 -1.09002,1.46426 -2.23939,3.20552 -2.55415,3.86948 -0.31477,0.66395 -1.33075,2.3221 -2.25773,3.68478 -2.56039,3.76381 -2.5734,3.66508 1.04769,7.95488 1.67082,1.97938 3.7945,4.58025 4.71931,5.77971 0.92479,1.19947 2.81642,3.469 4.20362,5.0434 1.3872,1.57441 2.66193,3.1208 2.83273,3.43641 0.29239,0.54031 0.36128,0.50013 1.17819,-0.68723 0.47721,-0.6936 1.48726,-2.38174 2.24457,-3.75141 0.75731,-1.36969 2.14788,-3.87752 3.09017,-5.57299 0.94229,-1.69546 1.71565,-3.24029 1.71857,-3.43296 0.007,-0.44601 -2.49134,-0.47006 -4.4819,-0.0432 -1.6993,0.36443 -3.01246,-0.0332 -3.21407,-0.97316 -0.0702,-0.32729 -0.31136,-1.41478 -0.53595,-2.41664 -0.63456,-2.83087 -0.75556,-5.02372 -0.32329,-5.85961 0.55825,-1.07956 1.9052,-1.38719 9.96173,-2.27515 5.98842,-0.66 8.47356,-0.17572 8.7496,1.70506 0.0686,0.46725 0.0197,0.91449 -0.10883,0.99387 -0.57861,0.3576 -0.20702,1.95878 0.67861,2.92409 0.5002,0.5452 1.14203,1.34709 1.4263,1.78199 0.49363,0.75518 0.49531,0.84916 0.0373,2.09138 -0.49997,1.3562 -0.57376,1.4814 -3.59851,6.10613 -1.02296,1.56407 -1.86071,2.95127 -1.86166,3.08266 -0.003,0.33618 -3.13412,5.56032 -4.34309,7.24493 -0.55308,0.77066 -1.63258,2.27274 -2.39892,3.33794 -2.5043,3.48102 -2.56852,3.62087 -2.087,4.54416 1.05202,2.0172 0.27075,2.58271 -4.06038,2.9391 -1.46426,0.12049 -3.04062,0.2788 -3.50302,0.35182 -0.4624,0.073 -1.02989,0.0742 -1.26109,0.003 z"
            id="path187" />
        <path style="display:inline;fill:#387bb0;stroke-width:0.282222"
            d="m 30.789816,167.50196 v -33.30222 h 5.08 5.079999 v 28.22222 28.22223 h 28.222221 28.222221 v 5.08 5.07999 H 64.092036 30.789816 Z"
            id="path183" />
        <path style="display:inline;fill:#fbd108;stroke-width:0.282222"
            d="m 108.68315,195.72419 v -5.08 h 28.22222 28.22222 v -28.22223 -28.22222 h 5.08 5.08 v 33.30222 33.30222 h -33.30222 -33.30222 z"
            id="path189" />
        <path style="display:inline;fill:#3b9341;stroke-width:0.282222"
            d="M 165.12759,94.688631 V 66.46641 h -28.22222 -28.22222 v -5.079999 -5.08 h 33.30222 33.30222 v 33.30222 33.302229 h -5.08 -5.08 z"
            id="path181" />
        <path style="display:inline;fill:#e95247;stroke-width:0.282222"
            d="m 30.789816,89.608631 v -33.30222 h 33.302219 33.302221 v 5.08 5.079999 H 69.172036 40.949814 v 28.222221 28.222229 h -5.079999 -5.08 z"
            id="path185" />
    </g>
    <metadata id="metadata207">
        <rdf:RDF>
            <cc:Work rdf:about="">
                <dc:title>Logotipo de Marca - Sanders Gutiérrez</dc:title>
                <dc:date>2023-02-28</dc:date>
                <dc:creator>
                    <cc:Agent>
                        <dc:title>Sanders Gutiérrez</dc:title>
                    </cc:Agent>
                </dc:creator>
                <dc:rights>
                    <cc:Agent>
                        <dc:title>Todos los derechos reservados</dc:title>
                    </cc:Agent>
                </dc:rights>
            </cc:Work>
        </rdf:RDF>
    </metadata>
</svg>
