<svg width="40" height="40" viewBox="0 0 100 100" version="1.1" id="logo-square" xmlns="http://www.w3.org/2000/svg" xmlns:svg="http://www.w3.org/2000/svg"> <g id="logo"> <path id="c1" style="display:inline;fill:#3b9341;fill-opacity:1;stroke-width:0.211864" d="m 99.999989,25 v 25 h -5 c 0.0124,-17.19629 -0.10578,-30.3171 0,-45 -16.80958,0.0511 -29.85417,0.0374 -44.99999,0 V 0 h 25 24.99999 z" /> <path id="c2" style="display:inline;fill:#e95247;fill-opacity:1;stroke-width:0.211864" d="M 24.999999,0 H 50.000001 V 4.999998 C 32.803709,4.987558 19.682899,5.105782 5,4.999998 c 0.0511,16.80959 0.0374,29.854186 0,45 H 0 v -25 V 0 Z" /> <path id="c3" style="display:inline;fill:#387bb0;stroke-width:0.211864" d="M 9.7670072e-7,74.999998 V 49.999999 H 4.9999999 c -0.012443,17.196296 0.1057842,30.317106 0,44.999999 16.8095901,-0.05111 29.8541861,-0.03736 45.0000001,0 v 5 H 25 9.7670072e-7 Z" /> <path id="c4" style="display:inline;fill:#fbd108;fill-opacity:1;stroke-width:0.211864" d="M 74.999994,99.999999 H 49.999999 v -5 c 17.196285,0.0124 30.317095,-0.10578 44.999995,0 -0.0511,-16.80959 -0.0374,-29.85418 0,-45 h 5 v 25 25 z" /> <path id="sg" style="display:inline;fill:#f9af16;stroke-width:0.193941" d="m 34.387808,71.290109 c -0.320003,-0.107864 -0.73337,-0.273126 -0.918592,-0.367252 -0.185221,-0.09412 -0.555136,-0.171123 -0.822036,-0.171123 -0.820172,0 -2.105236,-1.221583 -1.926907,-1.83171 0.206242,-0.705617 2.038401,-4.610667 3.035504,-6.469844 1.203985,-2.24492 1.89511,-4.170057 1.725168,-4.805486 -0.1167,-0.436366 -7.871348,-7.838681 -8.211778,-7.838681 -0.08046,0 -0.324389,-0.349099 -0.542062,-0.77577 -0.217673,-0.426671 -0.471323,-0.77577 -0.563668,-0.77577 -0.09235,0 -0.316501,-0.313146 -0.49812,-0.695879 -0.208286,-0.438927 -0.564994,-0.793978 -0.966034,-0.961544 -0.515826,-0.215526 -0.625413,-0.360449 -0.58068,-0.767943 0.03033,-0.276253 0.165677,-0.635477 0.300783,-0.798268 0.135103,-0.162792 0.625109,-1.088584 1.088897,-2.057319 0.868829,-1.814755 3.507192,-6.466065 4.155111,-7.325269 1.189995,-1.578052 1.76229,-2.582102 2.191986,-3.845692 0.55208,-1.62348 1.188172,-2.748331 1.554153,-2.748331 0.137893,0 0.632597,0.144545 1.099348,0.32121 0.527947,0.19983 1.49801,0.33108 2.567061,0.347329 2.041342,0.03102 2.257385,0.203198 2.257385,1.799033 0,1.170565 -0.345037,2.137562 -1.081677,3.031486 -0.477552,0.579518 -1.363769,2.009609 -2.301032,3.713186 -0.234746,0.42667 -1.040737,1.735777 -1.791094,2.909124 -1.536644,2.402881 -2.053328,3.345055 -1.965341,3.583792 0.09309,0.252592 4.68519,4.341659 6.799745,6.054883 1.040013,0.842621 1.890932,1.617976 1.890932,1.722995 0,0.105026 0.296172,0.365694 0.65816,0.579275 0.757855,0.447142 1.05259,1.044376 1.189708,2.41075 0.05352,0.533337 0.147752,1.284588 0.209401,1.669431 0.08102,0.505779 -0.0058,0.930858 -0.313314,1.533594 -0.233976,0.458637 -0.552268,1.261051 -0.707318,1.783163 -0.155051,0.522112 -0.403805,0.996064 -0.552792,1.053241 -0.148986,0.05716 -0.41843,0.510797 -0.598763,1.008064 -0.180335,0.497267 -0.577345,1.449815 -0.882249,2.11678 -0.304902,0.666958 -0.554366,1.271002 -0.554366,1.342325 0,0.07132 -0.113878,0.267444 -0.25306,0.435848 -0.265488,0.321216 -1.686359,3.559148 -1.686359,3.842924 0,0.169061 -2.03048,1.231126 -2.283113,1.194205 -0.07764,-0.01135 -0.402982,-0.108887 -0.722987,-0.216757 z M 59.69722,70.825202 c -0.160003,-0.04948 -0.552735,-0.452042 -0.87274,-0.89454 -0.319998,-0.442498 -1.019483,-1.289701 -1.554405,-1.882673 -0.534915,-0.592971 -1.186378,-1.383585 -1.447683,-1.756919 -0.74507,-1.064487 -3.293947,-4.279665 -4.098105,-5.169381 -0.400511,-0.443128 -1.225181,-1.577685 -1.832588,-2.521236 -1.227182,-1.90632 -2.553042,-3.636492 -4.158213,-5.426229 -2.111059,-2.353787 -2.133572,-2.385857 -2.12918,-3.032171 0.0051,-0.752185 0.589003,-2.099541 1.250601,-2.885817 0.264227,-0.314011 0.570609,-0.905889 0.680849,-1.315286 0.110239,-0.409398 0.336476,-0.857266 0.50275,-0.995261 0.166274,-0.137996 0.741643,-0.999081 1.278599,-1.913525 0.536955,-0.914443 1.704733,-2.636435 2.595051,-3.826661 0.890325,-1.190219 2.284519,-3.189412 3.0982,-4.442656 0.81368,-1.253252 1.991013,-2.950703 2.616317,-3.772128 1.900077,-2.496054 2.754008,-2.971837 3.823685,-2.130433 0.271215,0.213336 0.640681,0.387884 0.821037,0.387884 0.180355,0 0.5238,0.208497 0.763195,0.463329 0.239408,0.254829 0.698329,0.515939 1.019843,0.580241 0.321499,0.06429 0.842428,0.30053 1.157609,0.524963 l 0.57304,0.408041 -0.517323,0.902643 c -0.284537,0.496458 -0.806047,1.208102 -1.158924,1.581443 -0.352878,0.373342 -1.088806,1.366021 -1.635403,2.205958 -0.546596,0.839944 -1.410817,1.974508 -1.9205,2.52125 -0.509668,0.546742 -0.977212,1.124993 -1.038971,1.284996 -0.0618,0.160002 -0.729485,1.120017 -1.483829,2.133361 -0.75435,1.013345 -1.549774,2.218388 -1.767605,2.677882 -0.217837,0.459489 -0.920948,1.607015 -1.562467,2.550061 -1.771923,2.604753 -1.780927,2.536426 0.725056,5.505192 1.156295,1.369834 2.625992,3.169772 3.266009,3.999861 0.640003,0.830095 1.94911,2.400729 2.909124,3.490296 0.960015,1.089574 1.842195,2.159756 1.960397,2.378175 0.20235,0.373922 0.250025,0.346116 0.815369,-0.475599 0.330255,-0.480008 1.029262,-1.648289 1.55336,-2.596172 0.524098,-0.947897 1.486445,-2.683446 2.138559,-3.8568 0.652114,-1.173347 1.187319,-2.24245 1.18934,-2.375787 0.0048,-0.308662 -1.724137,-0.325306 -3.101709,-0.0299 -1.176004,0.252205 -2.084779,-0.02298 -2.224304,-0.673477 -0.04858,-0.226502 -0.215477,-0.979102 -0.370905,-1.672441 -0.439149,-1.95911 -0.522887,-3.476677 -0.223734,-4.055156 0.386338,-0.747112 1.318498,-0.960008 6.894037,-1.574523 4.144299,-0.456754 5.864146,-0.121607 6.05518,1.179991 0.04747,0.323361 0.01363,0.632874 -0.07532,0.68781 -0.400429,0.247477 -0.143269,1.355578 0.469633,2.023622 0.346165,0.377307 0.790345,0.932257 0.987074,1.233231 0.341618,0.522623 0.342781,0.587663 0.02581,1.447344 -0.346006,0.938561 -0.397072,1.025206 -2.490357,4.22576 -0.707942,1.082418 -1.287708,2.042433 -1.288366,2.133362 -0.0021,0.232654 -2.168974,3.848031 -3.005645,5.01387 -0.38276,0.533336 -1.12983,1.572854 -1.660177,2.310028 -1.733107,2.409048 -1.77755,2.505831 -1.444313,3.144796 0.728052,1.396008 0.187373,1.78737 -2.809995,2.034011 -1.013344,0.08338 -2.104268,0.192944 -2.424273,0.243477 -0.320005,0.05052 -0.712737,0.05135 -0.87274,0.0021 z" /> </g> </svg>